<svg width="142" height="62" viewBox="0 0 142 62" fill="none" xmlns="http://www.w3.org/2000/svg">
<path d="M74.44 27.988V27.448H79.54V27.988L78.44 28.088C78.2267 28.1147 78.1 28.168 78.06 28.248C78.02 28.328 78 28.6013 78 29.068V33.608H77.52C77.2667 33.2213 76.9667 32.9147 76.62 32.688C76.2333 33.0347 75.78 33.308 75.26 33.508C74.7533 33.708 74.1667 33.808 73.5 33.808C72.4333 33.808 71.5267 33.548 70.78 33.028C70.0333 32.4947 69.46 31.7547 69.06 30.808C68.6733 29.8613 68.48 28.7613 68.48 27.508V26.008C68.48 24.7813 68.6733 23.7013 69.06 22.768C69.46 21.8347 70.04 21.108 70.8 20.588C71.5733 20.068 72.5067 19.808 73.6 19.808C74.6533 19.808 75.52 20.008 76.2 20.408C76.8933 20.7947 77.3867 21.308 77.68 21.948C77.9867 22.588 78.0867 23.2747 77.98 24.008L76.26 24.428C76.4067 23.148 76.2467 22.168 75.78 21.488C75.3133 20.7947 74.5867 20.448 73.6 20.448C72.5333 20.448 71.7267 20.8213 71.18 21.568C70.6467 22.3147 70.38 23.5013 70.38 25.128V28.468C70.38 30.0947 70.6533 31.288 71.2 32.048C71.76 32.7947 72.58 33.168 73.66 33.168C74.2067 33.168 74.7133 33.068 75.18 32.868C75.66 32.668 76.06 32.348 76.38 31.908V29.068C76.38 28.6013 76.36 28.328 76.32 28.248C76.28 28.1547 76.1533 28.1013 75.94 28.088L74.44 27.988ZM80.6883 24.248V23.708H83.7683V25.308C84.2349 24.6813 84.7016 24.228 85.1683 23.948C85.6483 23.6547 86.1349 23.508 86.6283 23.508C87.0549 23.508 87.4549 23.6347 87.8283 23.888C88.2016 24.1413 88.5149 24.548 88.7683 25.108L87.4683 25.888C87.2683 25.408 87.0416 25.0747 86.7883 24.888C86.5349 24.7013 86.2549 24.608 85.9483 24.608C85.6149 24.608 85.2816 24.7147 84.9483 24.928C84.6283 25.1413 84.2683 25.5413 83.8683 26.128V31.988C83.8683 32.4547 83.8883 32.7347 83.9283 32.828C83.9683 32.908 84.0949 32.9547 84.3083 32.968L85.8083 33.088V33.608H80.6883V33.088L81.7883 32.968C82.0016 32.9413 82.1283 32.888 82.1683 32.808C82.2083 32.728 82.2283 32.4547 82.2283 31.988V25.328C82.2283 24.8613 82.2083 24.588 82.1683 24.508C82.1283 24.428 82.0016 24.3747 81.7883 24.348L80.6883 24.248ZM98.5602 28.848C98.5602 30.3547 98.1802 31.5613 97.4202 32.468C96.6735 33.3613 95.6068 33.808 94.2202 33.808C93.0868 33.808 92.1468 33.488 91.4002 32.848L90.8002 33.608H89.9002L90.9002 32.308C90.2335 31.4547 89.9002 30.3013 89.9002 28.848V28.448C89.9002 26.9547 90.2735 25.7613 91.0202 24.868C91.7668 23.9613 92.8335 23.508 94.2202 23.508C95.3535 23.508 96.2935 23.828 97.0402 24.468L97.6402 23.708H98.5602L97.5402 25.008C98.2202 25.888 98.5602 27.0347 98.5602 28.448V28.848ZM91.7002 29.248C91.7002 29.9547 91.7602 30.568 91.8802 31.088L96.3002 25.408C96.0868 24.968 95.8068 24.648 95.4602 24.448C95.1135 24.248 94.7002 24.148 94.2202 24.148C93.4068 24.148 92.7802 24.4547 92.3402 25.068C91.9135 25.668 91.7002 26.6613 91.7002 28.048V29.248ZM96.7602 28.048C96.7602 27.328 96.7002 26.7213 96.5802 26.228L92.1402 31.888C92.3535 32.3413 92.6335 32.668 92.9802 32.868C93.3268 33.068 93.7402 33.168 94.2202 33.168C95.0468 33.168 95.6735 32.868 96.1002 32.268C96.5402 31.6547 96.7602 30.648 96.7602 29.248V28.048ZM111.673 33.088V33.608H106.953V33.088L108.053 32.968C108.266 32.9413 108.393 32.888 108.433 32.808C108.473 32.728 108.493 32.4547 108.493 31.988V27.008C108.493 26.0213 108.333 25.328 108.013 24.928C107.693 24.5147 107.233 24.308 106.633 24.308C106.193 24.308 105.706 24.4413 105.173 24.708C104.64 24.9747 104.14 25.4947 103.673 26.268V31.988C103.673 32.4547 103.693 32.728 103.733 32.808C103.773 32.888 103.9 32.9413 104.113 32.968L105.213 33.088V33.608H100.493V33.088L101.593 32.968C101.806 32.9413 101.933 32.888 101.973 32.808C102.013 32.728 102.033 32.4547 102.033 31.988V25.328C102.033 24.8613 102.013 24.588 101.973 24.508C101.933 24.428 101.806 24.3747 101.593 24.348L100.493 24.248V23.708H103.573V25.328C104.053 24.688 104.593 24.228 105.193 23.948C105.806 23.6547 106.42 23.508 107.033 23.508C108.02 23.508 108.78 23.8147 109.313 24.428C109.86 25.028 110.133 25.8813 110.133 26.988V31.988C110.133 32.4547 110.153 32.728 110.193 32.808C110.233 32.888 110.36 32.9413 110.573 32.968L111.673 33.088ZM75.18 48.588H75.7V53.268H75.18L74.8 51.768C74.76 51.608 74.7133 51.4947 74.66 51.428C74.62 51.348 74.5333 51.3013 74.4 51.288C74.2667 51.2613 74.04 51.248 73.72 51.248H71.24V55.988C71.24 56.4547 71.26 56.7347 71.3 56.828C71.34 56.908 71.4667 56.9547 71.68 56.968L73.18 57.088V57.608H67.96V57.088L69.06 56.968C69.2733 56.9413 69.4 56.888 69.44 56.808C69.48 56.728 69.5 56.4547 69.5 55.988V45.628C69.5 45.1613 69.48 44.888 69.44 44.808C69.4 44.728 69.2733 44.6747 69.06 44.648L67.96 44.548V44.008H77.1V47.268H76.58L76 45.168C75.9467 44.9413 75.8667 44.8013 75.76 44.748C75.6667 44.6813 75.3867 44.648 74.92 44.648H71.24V50.608H73.72C74.04 50.608 74.2667 50.6013 74.4 50.588C74.5333 50.5613 74.62 50.5147 74.66 50.448C74.7133 50.368 74.76 50.248 74.8 50.088L75.18 48.588ZM78.5594 48.248V47.708H81.6394V49.308C82.106 48.6813 82.5727 48.228 83.0394 47.948C83.5194 47.6547 84.006 47.508 84.4994 47.508C84.926 47.508 85.326 47.6347 85.6994 47.888C86.0727 48.1413 86.386 48.548 86.6394 49.108L85.3394 49.888C85.1394 49.408 84.9127 49.0747 84.6594 48.888C84.406 48.7013 84.126 48.608 83.8194 48.608C83.486 48.608 83.1527 48.7147 82.8194 48.928C82.4994 49.1413 82.1394 49.5413 81.7394 50.128V55.988C81.7394 56.4547 81.7594 56.7347 81.7994 56.828C81.8394 56.908 81.966 56.9547 82.1794 56.968L83.6794 57.088V57.608H78.5594V57.088L79.6594 56.968C79.8727 56.9413 79.9994 56.888 80.0394 56.808C80.0794 56.728 80.0994 56.4547 80.0994 55.988V49.328C80.0994 48.8613 80.0794 48.588 80.0394 48.508C79.9994 48.428 79.8727 48.3747 79.6594 48.348L78.5594 48.248ZM95.7513 55.328C95.5113 56.2347 95.0579 56.8747 94.3913 57.248C93.7379 57.6213 93.0113 57.808 92.2113 57.808C90.7313 57.808 89.6246 57.3613 88.8913 56.468C88.1579 55.5613 87.7913 54.3547 87.7913 52.848V52.448C87.7913 50.9547 88.1446 49.7613 88.8513 48.868C89.5579 47.9613 90.5846 47.508 91.9313 47.508C92.6513 47.508 93.3046 47.6547 93.8913 47.948C94.4913 48.2413 94.9646 48.6747 95.3113 49.248C95.6713 49.8213 95.8513 50.5347 95.8513 51.388C95.8513 51.788 95.8113 52.208 95.7313 52.648H89.5913V53.248C89.5913 54.648 89.8046 55.6547 90.2313 56.268C90.6713 56.868 91.3779 57.168 92.3513 57.168C92.9646 57.168 93.4713 57.008 93.8713 56.688C94.2846 56.368 94.5579 55.8147 94.6913 55.028L95.7513 55.328ZM91.9313 48.148C91.1446 48.148 90.5579 48.448 90.1713 49.048C89.7846 49.648 89.5913 50.6347 89.5913 52.008H94.0913V51.948C94.1179 51.7747 94.1379 51.608 94.1513 51.448C94.1646 51.2747 94.1713 51.1213 94.1713 50.988C94.1713 49.988 93.9646 49.268 93.5513 48.828C93.1379 48.3747 92.5979 48.148 91.9313 48.148ZM108.719 57.088V57.608H103.999V57.088L105.099 56.968C105.312 56.9413 105.439 56.888 105.479 56.808C105.519 56.728 105.539 56.4547 105.539 55.988V51.008C105.539 50.0213 105.386 49.328 105.079 48.928C104.786 48.5147 104.352 48.308 103.779 48.308C103.366 48.308 102.899 48.4413 102.379 48.708C101.872 48.9747 101.386 49.488 100.919 50.248V55.988C100.919 56.4547 100.939 56.728 100.979 56.808C101.019 56.888 101.146 56.9413 101.359 56.968L102.459 57.088V57.608H97.7391V57.088L98.8391 56.968C99.0524 56.9413 99.1791 56.888 99.2191 56.808C99.2591 56.728 99.2791 56.4547 99.2791 55.988V49.328C99.2791 48.8613 99.2591 48.588 99.2191 48.508C99.1791 48.428 99.0524 48.3747 98.8391 48.348L97.7391 48.248V47.708H100.819V49.328C101.286 48.7013 101.812 48.2413 102.399 47.948C102.999 47.6547 103.592 47.508 104.179 47.508C105.619 47.508 106.546 48.168 106.959 49.488C107.452 48.7947 107.999 48.2947 108.599 47.988C109.212 47.668 109.826 47.508 110.439 47.508C111.386 47.508 112.119 47.8147 112.639 48.428C113.172 49.028 113.439 49.8813 113.439 50.988V55.988C113.439 56.4547 113.459 56.728 113.499 56.808C113.539 56.888 113.666 56.9413 113.879 56.968L114.979 57.088V57.608H110.259V57.088L111.359 56.968C111.572 56.9413 111.699 56.888 111.739 56.808C111.779 56.728 111.799 56.4547 111.799 55.988V51.008C111.799 50.0213 111.646 49.328 111.339 48.928C111.046 48.5147 110.612 48.308 110.039 48.308C109.626 48.308 109.152 48.448 108.619 48.728C108.099 48.9947 107.606 49.5213 107.139 50.308C107.152 50.4147 107.159 50.528 107.159 50.648C107.172 50.7547 107.179 50.868 107.179 50.988V55.988C107.179 56.4547 107.199 56.728 107.239 56.808C107.279 56.888 107.406 56.9413 107.619 56.968L108.719 57.088ZM122.738 55.568C122.538 56.3413 122.224 56.908 121.798 57.268C121.371 57.628 120.824 57.808 120.158 57.808C119.518 57.808 118.998 57.668 118.598 57.388C118.198 57.0947 117.904 56.7147 117.718 56.248C117.531 55.7813 117.438 55.2947 117.438 54.788V49.328C117.438 48.8613 117.418 48.588 117.378 48.508C117.351 48.428 117.224 48.3747 116.998 48.348L115.898 48.248V47.708H117.438V45.088L119.078 44.748V47.708H122.338V48.348H119.078V54.948C119.078 55.788 119.191 56.368 119.418 56.688C119.658 57.008 119.971 57.168 120.358 57.168C120.744 57.168 121.038 57.0213 121.238 56.728C121.451 56.4347 121.604 55.9547 121.698 55.288L122.738 55.568ZM126.212 45.468C125.892 45.468 125.625 45.368 125.412 45.168C125.212 44.9547 125.112 44.6813 125.112 44.348C125.112 44.028 125.212 43.768 125.412 43.568C125.625 43.368 125.892 43.268 126.212 43.268C126.532 43.268 126.792 43.368 126.992 43.568C127.205 43.768 127.312 44.028 127.312 44.348C127.312 44.6813 127.205 44.9547 126.992 45.168C126.792 45.368 126.532 45.468 126.212 45.468ZM123.872 48.248V47.708H127.052V55.988C127.052 56.4547 127.072 56.728 127.112 56.808C127.152 56.888 127.279 56.9413 127.492 56.968L128.592 57.088V57.608H123.872V57.088L124.972 56.968C125.185 56.9413 125.312 56.888 125.352 56.808C125.392 56.728 125.412 56.4547 125.412 55.988V49.328C125.412 48.8613 125.392 48.588 125.352 48.508C125.312 48.428 125.185 48.3747 124.972 48.348L123.872 48.248ZM140.188 57.108V57.608H137.108V56.028C136.695 56.6413 136.235 57.0947 135.728 57.388C135.235 57.668 134.682 57.808 134.068 57.808C132.922 57.808 132.028 57.3813 131.388 56.528C130.762 55.6613 130.448 54.4413 130.448 52.868V52.468C130.448 50.9613 130.815 49.7613 131.548 48.868C132.295 47.9613 133.315 47.508 134.608 47.508C135.555 47.508 136.355 47.8013 137.008 48.388V44.428C137.008 43.9613 136.988 43.688 136.948 43.608C136.908 43.528 136.782 43.4747 136.568 43.448L135.468 43.348V42.808H138.648V55.988C138.648 56.4547 138.668 56.728 138.708 56.808C138.748 56.888 138.875 56.9413 139.088 56.968L140.188 57.108ZM132.248 53.468C132.248 54.7213 132.428 55.6413 132.788 56.228C133.162 56.8147 133.675 57.108 134.328 57.108C134.755 57.108 135.195 56.9747 135.648 56.708C136.102 56.4413 136.555 55.9013 137.008 55.088V49.368C136.422 48.5813 135.655 48.188 134.708 48.188C133.855 48.188 133.228 48.5147 132.828 49.168C132.442 49.8213 132.248 50.7213 132.248 51.868V53.468Z" fill="#0B7942"/>
<path d="M44 44.228C44 51.3901 38.4615 59.432 32 57.1961C25.5385 58.9849 20 51.3901 20 44.228C20 37.0659 28.1418 28.5768 34.7692 28.5768C41.6923 31.707 43.0769 36.626 44 44.228Z" fill="#189970"/>
<ellipse cx="34" cy="28.5768" rx="3" ry="4" fill="#189970"/>
<path d="M29.0094 9.42097C34.2442 14.6557 34.8537 21.8961 33.5133 29.0094C30.3856 31.2791 14.6557 34.2442 9.42097 29.0094C4.18625 23.7747 3.51689 14.2403 10.2191 11.5594C11.5595 2.62318 23.7747 4.18625 29.0094 9.42097Z" fill="#00A15B"/>
<path d="M54.2718 31.0029C47.5624 34.1315 39.587 31.7142 33.6017 28.5378C32.6923 25.1519 36.9701 11.4163 43.6795 8.28764C50.3889 5.15899 61.6026 7.53784 61.1241 13.9804C66.0709 18.2615 60.9812 27.8743 54.2718 31.0029Z" fill="#0B7942"/>
<path d="M31.502 57.5736L33.502 28.5736M9.30078 11.208L33.3008 29.208M61.2369 14.0487L33.2369 29.0487" stroke="black" stroke-opacity="0.08"/>
</svg>
